<svg enable-background="new 0 0 141.123 161.322" viewBox="0 0 141.123 161.322" xmlns="http://www.w3.org/2000/svg"><path d="m74.673 34.825s8.695-16.475 20.136-25.17 22.425-16.475 30.662 0 8.238 20.494-25.399 32.9-25.399-7.73-25.399-7.73z" fill="#2caf3e"/><path d="m66.629 35.825s-8.695-16.475-20.136-25.17-22.425-16.475-30.662 0-8.238 20.494 25.399 32.9 25.399-7.73 25.399-7.73z" fill="#2caf3e"/><path d="m84.132 39.67s12.784-8.495 19.656-11.531 22.053-7.031 22.852-5.913c.799 1.119-9.428 9.748-18.857 13.743s-25.78 8.629-25.78 8.629-1.227-2.004 2.129-4.928z" fill="#358435"/><path d="m56.772 39.67s-12.784-8.495-19.656-11.531-22.053-7.031-22.852-5.913c-.799 1.119 9.428 9.748 18.857 13.743s25.78 8.629 25.78 8.629 1.227-2.004-2.129-4.928z" fill="#358435"/><path d="m135.808 74.82h-130.493c-2.923 0-5.315-2.392-5.315-5.315v-21.595c0-2.923 2.392-5.315 5.315-5.315h130.493c2.923 0 5.315 2.392 5.315 5.315v21.595c0 2.923-2.392 5.315-5.315 5.315z" fill="#d84444"/><path d="m124.764 161.322h-109.226c-2.892 0-5.259-2.366-5.259-5.259v-92.097c0-2.892 2.366-5.259 5.259-5.259h109.226c2.892 0 5.259 2.366 5.259 5.259v92.097c0 2.893-2.366 5.259-5.259 5.259z" fill="#d84444"/><path d="m10.69 74.82h119.744v6.364h-119.744z" opacity=".28"/><ellipse cx="70.1" cy="38.572" fill="#358435" rx="12.848" ry="10.021"/><path d="m54.773 42.594h31.578v118.728h-31.578z" fill="#2caf3e"/></svg>