<svg enable-background="new 0 0 475 512.025" viewBox="0 0 475 512.025" xmlns="http://www.w3.org/2000/svg"><circle cx="237.5" cy="274.525" fill="#8cd9f4" r="237.5"/><path d="m47 380.888s-4-33.272 9-54.661 47-20.201 47-20.201h212.524c2.705-23.301 11.613-51.346 38.299-57.002 36.848-7.809 90.961 11.825 118.894 58.426 1.493-10.763 2.283-21.752 2.283-32.926 0-131.168-106.332-237.5-237.5-237.5s-237.5 106.333-237.5 237.501c0 53.175 17.479 102.267 47 141.849z" fill="none"/><path d="m353.823 249.025c-26.686 5.656-35.594 33.701-38.299 57.002h36.476s29 0 40 20.201 9 79.615 9 79.615v40.938c38.067-36.144 64.15-84.775 71.717-139.329-27.933-46.602-82.046-66.236-118.894-58.427z" fill="#7c1118"/><path d="m392 326.228c-11-20.201-40-20.201-40-20.201h-36.476-212.524s-34-1.188-47 20.201-9 54.661-9 54.661v35.486c43.299 58.055 112.508 95.651 190.5 95.651 63.357 0 120.916-24.812 163.5-65.245v-40.938c0-.001 2-59.415-9-79.615z" fill="#d3222f"/><path d="m103 154.025h212v103h-212z" fill="#efd8c5"/><path d="m144 204.025s9-11 19-11 18 11 18 11" fill="none" stroke="#000" stroke-linecap="round" stroke-miterlimit="10" stroke-width="4"/><path d="m219 204.025s5-13 19-11c13.021 1.86 18 11 18 11" fill="none" stroke="#000" stroke-linecap="round" stroke-miterlimit="10" stroke-width="4"/><path d="m114 133.025h182s4-21 30-22 37 9 43 16 18 27 18 27 5-90-42-127-117-32-161-9-71 61-70 115z" fill="#d3222f"/><g fill="#fff"><path d="m205.5 122.525h105s5 1 8 5 4.079 31.941 0 35c-4 3-113 2-113 2h-99s-9-1-12-5-2-20.292-2-27c0-3 .766-6.267 4-8 3.707-1.986 11.957-2 16.163-2z"/><circle cx="383" cy="159.025" r="25"/><path d="m106.057 359.006c-6.737-20.15-9.97-41.946-11.423-63.126-1.032-15.054-1.014-31.362 7.724-43.665 16.898-23.792 58.609-25.339 84.73-27.059 27.825-1.833 56.94-.837 83.913 6.869 21.299 6.086 43.998 13.999 53.521 36.189 3.855 8.982 2.746 22.335 2.195 32.094-2.499 44.278-18.287 90.529-53.893 116.968-9.95 7.388-21.139 13.012-30.888 20.663-12.73 9.992-23.695 27.696-24.906 44.14-9.714-16.469-21.065-28.673-36.837-39.64-14.385-10.003-29.808-18.747-42.435-30.893-15.051-14.482-25.072-32.714-31.701-52.54z"/></g></svg>